<svg xmlns="http://www.w3.org/2000/svg" xmlns:xlink="http://www.w3.org/1999/xlink" viewBox="0 0 172.31 206.7"><defs><style>.a{fill:url(#a);}.b{fill:url(#b);}.c{fill:none;stroke-linecap:round;stroke-miterlimit:10;stroke-width:8.14px;stroke:url(#c);}</style><linearGradient id="a" x1="88.72" y1="125.39" x2="43.96" y2="48.09" gradientUnits="userSpaceOnUse"><stop offset="0" stop-color="#d64a08"/><stop offset="1" stop-color="#6a6264"/></linearGradient><linearGradient id="b" x1="104.62" y1="116.18" x2="59.87" y2="38.88" xlink:href="#a"/><linearGradient id="c" x1="79.89" y1="70.41" x2="103.08" y2="70.41" xlink:href="#a"/></defs><path class="a" d="M168.74,83.38,98.58,5.15A15.12,15.12,0,0,0,87.36,0h-.11A15.11,15.11,0,0,0,76.06,5L65.42,16.52a2.16,2.16,0,0,1-3.7-1,17,17,0,0,0-33.65,3.55V56.13a2.16,2.16,0,0,1-.57,1.47L3.65,83.42c-4.87,5.28-3.72,9.66-3,11.31S3.8,100.19,11,100.19H22.31a5.13,5.13,0,0,0,0-10.27H16.57A2.16,2.16,0,0,1,15,86.29L37,62.46A5.14,5.14,0,0,0,38.33,59V19a6.74,6.74,0,1,1,13.48,0v14.2A5.11,5.11,0,0,0,55.09,38a5,5,0,0,0,1.85.35,5.17,5.17,0,0,0,3.78-1.65L83.59,12a5,5,0,0,1,3.66-1.69h0A5,5,0,0,1,90.93,12l66.66,74.31A2.16,2.16,0,0,1,156,89.93h-6.06a5.14,5.14,0,0,0-5.13,5.13v95.41a6,6,0,0,1-5.95,6H99.76l-.32,0H70.33l-.34,0H33.4c-3.42.1-4.29,3.37-4.27,5.29s.91,5,4.08,5H138.85a16.24,16.24,0,0,0,16.21-16.22V102.35a2.16,2.16,0,0,1,2.16-2.16h4c7.15,0,9.63-3.82,10.36-5.46C173.8,89.81,170.34,85.15,168.74,83.38Z"/><path class="b" d="M104.57,57.82c-4.63,0-11.35,1.4-18.47,7.58C79,59.22,72.26,57.82,67.64,57.82A24.81,24.81,0,0,0,46.17,71a27.17,27.17,0,0,0,1,28c6.43,10.19,16.93,18,36.62,30.52a4.34,4.34,0,0,0,4.67,0C108.12,117,118.62,109.2,125.05,99a27.17,27.17,0,0,0,1-28A24.81,24.81,0,0,0,104.57,57.82Zm13.14,36.56c-5.31,8.42-14.54,15.37-31.61,26.34C69,109.74,59.8,102.8,54.49,94.38a18.6,18.6,0,0,1-.72-19.15A16.15,16.15,0,0,1,67.63,66.5c5.16,0,10.45,2.73,15.31,7.89a4.34,4.34,0,0,0,6.32,0c4.86-5.16,10.15-7.89,15.31-7.89a16.15,16.15,0,0,1,13.87,8.73A18.6,18.6,0,0,1,117.71,94.38Z"/><path class="c" d="M84,96s.41-20.16,4.88-31.78A94.13,94.13,0,0,1,99,44.78"/></svg>